<svg width="256" height="256" viewBox="0 0 256 256" fill="none" xmlns="http://www.w3.org/2000/svg">
<rect x="5" y="5" width="246" height="246" rx="42" fill="url(#paint0_radial_75_13)" stroke="#C40123" stroke-width="10"/>
<path d="M116.418 194.727H114.139L114.779 197.401C112.55 198.535 110.987 199.661 110.017 200.706C109.065 201.73 108.822 202.512 108.822 203.083C108.822 203.91 109.356 205.239 111.587 206.918C113.764 208.556 117.104 210.163 121.499 211.567C130.255 214.365 142.54 216.153 156.248 216.153C169.956 216.153 182.283 214.365 191.082 211.566C195.499 210.161 198.86 208.553 201.053 206.913C203.302 205.229 203.836 203.901 203.836 203.083C203.836 202.535 203.595 201.752 202.626 200.712C201.644 199.658 200.075 198.526 197.871 197.396L200.026 191.832C207.068 193.746 213.067 196.177 217.377 199.049C221.569 201.844 224.866 205.55 224.866 210.154C224.866 214.376 222.117 217.839 218.482 220.509C214.786 223.225 209.628 225.546 203.527 227.444C191.289 231.251 174.57 233.561 156.248 233.561C137.926 233.561 121.207 231.251 108.969 227.444C102.868 225.546 97.7113 223.225 94.0146 220.509C90.38 217.839 87.6299 214.375 87.6299 210.153C87.63 205.528 90.9595 201.822 95.1777 199.035C99.5171 196.167 105.555 193.743 112.636 191.83L116.418 190.808V194.727ZM173.86 100.146C200.374 119.302 207.024 146.801 201.331 169.611C195.661 192.331 177.514 210.87 154.439 210.87C136.579 210.87 124.468 202.129 118.98 189.421C113.59 176.938 114.765 161.064 122.286 146.688C125.201 139.232 129.877 132.75 136.14 128.827L140.24 132.96C140.539 132.609 140.844 132.275 141.155 131.96C143.048 130.04 145.326 128.616 147.809 128.3L156.507 127.194L150.31 133.397C149.178 134.53 148.024 136.158 147.037 138.466C145.509 142.04 144.734 146.145 144.736 149.832C144.738 153.626 145.557 156.468 146.674 157.916C147.341 158.78 147.832 158.823 148.164 158.787C148.7 158.728 149.686 158.316 150.918 156.964L155.447 159.863C161.141 150.226 165.173 136.671 164.027 124.008L169.885 122.863C171.827 129.232 173.174 135.412 174.003 141.339C174.822 137.182 175.303 132.952 175.385 128.806C175.57 119.474 173.733 110.837 169.487 104.39L168.679 103.813V92.5856L173.86 100.146ZM180.229 172.021C177.413 175.612 174.242 178.815 170.39 182.416L166.059 186.464L165.361 180.577L165.002 177.54C162.015 182.205 158.09 185.692 153.572 187.751C149.21 189.738 144.438 190.323 139.668 189.451C144.787 193.228 152.274 194.534 159.914 192.194C167.676 189.817 175.566 183.543 180.229 172.021ZM136.862 168.366C137.232 169.125 137.624 169.769 138.027 170.284C139.019 171.548 139.985 172.079 140.848 172.264C141.729 172.453 142.838 172.35 144.215 171.752C141.328 172.037 138.754 170.733 136.862 168.366Z" fill="url(#paint1_linear_75_13)" stroke="#BE3628" stroke-width="6"/>
<path d="M33.0521 93.7168C36.0848 92.2346 39.6854 92.7524 42.7611 93.6617C45.964 94.6087 49.3528 96.2162 52.4156 97.805C55.7098 99.514 58.1965 100.96 60.5901 102.165C61.714 102.731 62.5616 103.107 63.1571 103.303C63.1887 103.313 63.2198 103.32 63.2482 103.329C63.2942 103.304 63.3441 103.278 63.3969 103.249C63.8416 103.005 64.4605 102.664 65.2295 102.239C66.7669 101.388 68.8953 100.206 71.4157 98.8035C76.4558 95.9993 83.0575 92.319 89.6198 88.6572C96.1818 84.9954 102.704 81.353 107.586 78.6262C110.027 77.2628 112.057 76.128 113.478 75.3343C114.188 74.9376 114.746 74.6261 115.126 74.4137C115.316 74.3076 115.461 74.2261 115.56 74.1713C115.608 74.144 115.646 74.1233 115.671 74.1094C115.683 74.1026 115.692 74.097 115.699 74.0935C115.702 74.0917 115.705 74.0896 115.706 74.0888L115.708 74.0879L118.475 72.5419L119.807 75.2662C119.944 75.329 120.327 75.4359 121.207 75.3718C122.702 75.2631 124.709 74.6648 126.715 73.6842C128.718 72.7053 130.436 71.4797 131.453 70.3531C132.068 69.672 132.215 69.2932 132.248 69.1475L126.576 57.5424L131.582 57.7283L131.471 60.726C131.582 57.7283 131.582 57.7279 131.583 57.7279L131.583 57.7287L131.586 57.7283C131.588 57.7284 131.591 57.7287 131.594 57.7288C131.6 57.7291 131.609 57.7291 131.619 57.7295C131.641 57.7304 131.672 57.7317 131.711 57.7334C131.79 57.7368 131.903 57.7418 132.046 57.7491C132.333 57.7638 132.743 57.7879 133.244 57.8224C134.244 57.8912 135.622 58.0053 137.126 58.1889C138.624 58.3717 140.289 58.6276 141.851 58.9872C142.815 59.2091 143.828 59.4916 144.774 59.8578L158.298 53.248C159.615 52.6044 160.851 52.9628 161.515 53.2709C162.187 53.5825 162.741 54.0413 163.152 54.4309C163.995 55.2314 164.853 56.3447 165.664 57.5335C166.006 58.0352 166.354 58.5758 166.708 59.145L175.365 54.9138L183.323 71.1952L174.545 75.4856C174.622 75.7124 174.697 75.9352 174.767 76.154C175.207 77.5242 175.559 78.8851 175.673 80.0419C175.728 80.6048 175.75 81.3228 175.584 82.044C175.419 82.757 174.943 83.9548 173.625 84.5992L169.98 86.3805L169.978 86.3665L162.571 89.9867L163.945 91.1704L166.476 93.3509C168.1 92.7923 169.848 92.6355 171.567 92.9107C174.042 93.3072 176.295 94.5737 177.92 96.4827C179.545 98.3918 180.435 100.819 180.431 103.326C180.427 105.833 179.529 108.256 177.897 110.16C176.266 112.064 174.01 113.323 171.533 113.711C169.056 114.1 166.522 113.592 164.386 112.279C162.251 110.966 160.654 108.934 159.882 106.549C159.346 104.891 159.233 103.139 159.537 101.447L155.461 97.9595L152.116 95.0965L147.721 97.2449C117.175 112.174 87.2437 119.152 63.5411 124.947L63.8594 128.249L64.148 131.259C64.9268 131.921 65.5653 132.742 66.0155 133.675C66.7334 135.162 66.9318 136.847 66.5794 138.46C66.2269 140.073 65.3438 141.523 64.0711 142.575C62.7983 143.627 61.209 144.222 59.5581 144.266C57.9073 144.308 56.2897 143.797 54.964 142.812C53.6382 141.827 52.6805 140.426 52.2445 138.834C51.8086 137.241 51.9194 135.548 52.5587 134.026C52.9218 133.161 53.4434 132.379 54.0907 131.718L53.9092 129.814L53.6768 127.404C51.9475 127.848 50.2624 128.291 48.6246 128.736C42.8744 130.299 38.5201 130.512 35.1471 129.352C31.5831 128.126 29.6792 125.572 28.4381 123.033C26.865 119.814 25.1653 114.207 25.1346 108.668C25.1041 103.168 26.7703 96.7871 33.0521 93.7168ZM178.335 37.5405L178.499 38.957C178.589 38.9782 178.679 39.0008 178.769 39.0263L179.049 39.114L179.325 39.2152C179.87 39.431 180.38 39.7271 180.838 40.0932L181.062 40.2813L181.278 40.4815C181.764 40.9563 182.164 41.512 182.462 42.1243L197.257 72.3937C197.926 73.8018 198.012 75.4172 197.498 76.8888C196.984 78.3602 195.91 79.5695 194.509 80.254C193.109 80.9385 191.495 81.0429 190.018 80.5449C188.54 80.0468 187.319 78.9857 186.619 77.5928L186.611 77.5783L171.813 47.3019C171.125 45.8946 171.026 44.2718 171.534 42.7903L171.636 42.5157C172.179 41.1586 173.207 40.0468 174.526 39.402L178.335 37.5405Z" fill="#16972E" stroke="#104000" stroke-width="6"/>
<defs>
<radialGradient id="paint0_radial_75_13" cx="0" cy="0" r="1" gradientUnits="userSpaceOnUse" gradientTransform="translate(159.5 279.5) rotate(-105.723) scale(300.753)">
<stop offset="0.315706" stop-color="#16972E"/>
<stop offset="0.971154" stop-color="white"/>
</radialGradient>
<linearGradient id="paint1_linear_75_13" x1="156.248" y1="102.267" x2="156.248" y2="230.561" gradientUnits="userSpaceOnUse">
<stop offset="0.557692" stop-color="#FFE52F"/>
<stop offset="1" stop-color="#BE1320"/>
</linearGradient>
</defs>
</svg>
